# xmcd
#
# Track frame offsets:
#	150
#	13555
#	24735
#	35119
#	46290
#	61376
#	73771
#	86796
#	95442
#	108521
#	121083
#
# Disc length: 1790 seconds
#
# Revision: 1
# Processed by: cddbd v1.5.2PL0 Copyright (c) Steve Scherf et al.
# Submitted via: audiograbber 1.83.01
#
DISCID=9306fc0b
DTITLE=Bill Green - Dang These Texas Honky Tonks
DYEAR=2008
DGENRE=Country
TTITLE0=Under A Neon Halo
TTITLE1=Dang These Texas Honky Tonks
TTITLE2=I'll Go To A Stranger
TTITLE3=Sad Old Country Song
TTITLE4=She's The Only Honky Tonk
TTITLE5=Unsung Hero Of The Honky Tonks
TTITLE6=It's Written All Over Her Face
TTITLE7=Girl I Love What You're Doin' To Me
TTITLE8=If I Haven't Said I Love You
TTITLE9=Amazing Grace
TTITLE10=Texas Greats
EXTD=
EXTT0=
EXTT1=
EXTT2=
EXTT3=
EXTT4=
EXTT5=
EXTT6=
EXTT7=
EXTT8=
EXTT9=
EXTT10=
PLAYORDER=
